<svg width="138" height="158" viewBox="0 0 138 158" fill="none" xmlns="http://www.w3.org/2000/svg">
<path fill-rule="evenodd" clip-rule="evenodd" d="M131.1 88.9333H6.9C3.0912 88.9333 0 86.3349 0 83.1333V5.8C0 2.5984 3.0912 0 6.9 0H131.1C134.909 0 138 2.5984 138 5.8V83.1333C138 86.3349 134.909 88.9333 131.1 88.9333Z" fill="#0455BF"/>
<path fill-rule="evenodd" clip-rule="evenodd" d="M117.3 81.2001H13.8002C11.261 81.2001 9.2002 79.4678 9.2002 77.3334V11.6001C9.2002 9.46567 11.261 7.7334 13.8002 7.7334H115C117.539 7.7334 119.6 9.46567 119.6 11.6001V79.2667C119.6 80.3339 118.57 81.2001 117.3 81.2001Z" fill="#FDFEFF"/>
<path fill-rule="evenodd" clip-rule="evenodd" d="M13.8002 77.3334V11.6001C13.8002 9.46567 15.861 7.7334 18.4002 7.7334H13.8002C11.261 7.7334 9.2002 9.46567 9.2002 11.6001V77.3334C9.2002 79.4678 11.261 81.2001 13.8002 81.2001H18.4002C15.861 81.2001 13.8002 79.4678 13.8002 77.3334Z" fill="#DFEAEF"/>
<path fill-rule="evenodd" clip-rule="evenodd" d="M89.6998 44.4664C89.6998 54.0738 80.4293 61.8664 68.9998 61.8664C57.5703 61.8664 48.2998 54.0738 48.2998 44.4664C48.2998 34.859 57.5703 27.0664 68.9998 27.0664C80.4293 27.0664 89.6998 34.859 89.6998 44.4664Z" fill="#0455BF"/>
<path fill-rule="evenodd" clip-rule="evenodd" d="M78.1997 52.1998C78.1997 50.8207 79.086 49.5525 80.4997 48.8668C77.4453 47.3459 73.5752 49.2096 73.5997 52.1998V57.9998C75.1453 57.9998 76.6909 57.8478 78.1997 57.5565V52.1998Z" fill="#004787"/>
<path fill-rule="evenodd" clip-rule="evenodd" d="M73.6 58.0002C65.8137 58.0105 58.6868 54.3449 55.1509 48.514C51.6181 42.6856 52.2775 35.687 56.8529 30.3896C51.9432 33.3799 48.8397 38.0224 48.3613 43.0981C47.8799 48.1737 50.0725 53.1669 54.3628 56.7706C58.6377 60.3666 64.5809 62.2097 70.6161 61.8076C76.6544 61.4029 82.1897 58.7968 85.7348 54.6672C82.2143 56.8325 77.9608 58.0002 73.6 58.0002Z" fill="#004787"/>
<path fill-rule="evenodd" clip-rule="evenodd" d="M64.4006 52.2005C63.131 52.2005 62.1006 51.3343 62.1006 50.2671V38.6671C62.1006 37.2262 63.8977 36.2904 65.431 36.9349L79.231 42.7349C80.6325 43.3303 80.933 44.9002 79.829 45.8256C79.4702 46.1298 79.4702 46.1298 65.431 51.9891C65.1059 52.1309 64.7594 52.2005 64.4006 52.2005Z" fill="#FEBC00"/>
<path fill-rule="evenodd" clip-rule="evenodd" d="M79.2291 42.7349L78.7783 42.5441L70.0291 46.1994C68.4958 46.8439 66.6987 45.9081 66.6987 44.4671V37.4685L65.4291 36.9349C63.8958 36.2904 62.0987 37.2262 62.0987 38.6671V50.2671C62.0864 51.7081 63.8835 52.6439 65.4168 52.0097C79.4438 46.1479 79.4438 46.1479 79.8148 45.8463C80.9188 44.9105 80.6183 43.3381 79.2168 42.7555L79.2291 42.7349Z" fill="#EDAA03"/>
<path fill-rule="evenodd" clip-rule="evenodd" d="M43.7 65.7334H23V69.6001H87.4V65.7334H43.7Z" fill="#0455BF"/>
<path fill-rule="evenodd" clip-rule="evenodd" d="M128.8 40.5996C131.339 40.5996 133.4 42.734 133.4 44.4663C133.4 46.6007 131.339 48.3329 128.8 48.3329C126.261 48.3329 124.2 46.1985 124.2 44.4663C124.2 42.3319 126.261 40.5996 128.8 40.5996Z" fill="#FEBC00"/>
<path fill-rule="evenodd" clip-rule="evenodd" d="M131.1 46.4C127.757 46.4103 125.531 43.5 126.92 40.9531C123.973 42.0487 123.252 45.3018 125.531 47.2145C127.818 49.1376 131.676 48.5344 132.992 46.0571C132.394 46.2788 131.747 46.4 131.1 46.4Z" fill="#EDAA03"/>
<path fill-rule="evenodd" clip-rule="evenodd" d="M110.4 77.333C107.861 77.333 105.8 79.0653 105.8 81.1997V75.3997C105.8 70.2441 96.6004 70.2441 96.6004 75.3997V67.6663C96.6004 62.5108 87.4004 62.5108 87.4004 67.6663V52.1997C87.4004 47.0441 78.2004 47.0441 78.2004 52.1997V91.1989C78.2004 93.3436 75.1214 94.4108 73.3244 92.9002L64.4004 85.3989C62.6156 83.8471 59.6562 83.829 57.8469 85.3576C56.0284 86.8785 56.0498 89.3661 57.896 90.8663L67.648 99.074L71.7542 102.518C76.0077 106.091 78.4028 110.945 78.4028 116H109.048V115.275C109.048 112.496 110.088 109.787 112.017 107.521C113.958 105.266 115 102.557 115 99.7777V81.1997C115 79.0653 112.94 77.333 110.4 77.333Z" fill="#ECC19C"/>
<path fill-rule="evenodd" clip-rule="evenodd" d="M36.7995 71.5331C32.7024 71.5331 30.6539 67.3648 33.5427 64.9288C36.4407 62.5006 41.3995 64.2225 41.3995 67.6664C41.3995 69.8008 39.3387 71.5331 36.7995 71.5331Z" fill="#FEBC00"/>
<path fill-rule="evenodd" clip-rule="evenodd" d="M39.0997 69.6002C35.757 69.6105 33.5306 66.7002 34.9198 64.1533C31.9727 65.2489 31.2521 68.502 33.5306 70.4147C35.8183 72.3378 39.6762 71.7346 40.9918 69.2573C40.3938 69.479 39.7467 69.6002 39.0997 69.6002Z" fill="#EDAA03"/>
<path fill-rule="evenodd" clip-rule="evenodd" d="M57.8963 85.3989C58.1846 85.1669 58.5066 84.9659 58.8439 84.7957C55.4031 83.1021 51.211 85.6619 52.0512 88.9331H56.6512C56.3262 87.6545 56.7954 86.3243 57.8963 85.3989ZM73.6001 88.9335H78.2001V81.2002H73.6001V88.9335Z" fill="#004787"/>
<mask id="mask0_6_2088" style="mask-type:luminance" maskUnits="userSpaceOnUse" x="0" y="0" width="138" height="116">
<path fill-rule="evenodd" clip-rule="evenodd" d="M0 116H138V0H0V116Z" fill="white"/>
</mask>
<g mask="url(#mask0_6_2088)">
<path fill-rule="evenodd" clip-rule="evenodd" d="M73.6006 81.2006H78.2006V69.6006H73.6006V81.2006ZM78.2002 60.0342C77.6604 60.2559 77.1115 60.4672 76.5595 60.6477C76.3663 60.7096 76.1762 60.7688 75.9707 60.8307C75.4555 60.9905 74.9311 61.122 74.3914 61.2432C74.1644 61.2921 73.913 61.354 73.6707 61.403L73.5879 61.4236V65.7336H78.1879L78.2002 60.0342Z" fill="#DFEAEF"/>
<path fill-rule="evenodd" clip-rule="evenodd" d="M78.1996 57.5566C76.6908 57.8479 75.1452 58 73.5996 58V61.413L73.6824 61.4027C74.6668 61.2016 75.6236 60.949 76.5589 60.6474C77.1201 60.4566 77.6721 60.2659 78.1996 60.0236V57.5566ZM73.5996 69.6001H78.1996V65.7334H73.5996V69.6001Z" fill="#004787"/>
</g>
<g clip-path="url(#clip0_6_2088)">
<path d="M23.9574 119.22C24.7174 119.22 25.3974 119.29 25.9974 119.43C26.5974 119.57 27.1874 119.79 27.7674 120.09L26.8374 121.86C26.2974 121.6 25.7874 121.42 25.3074 121.32C24.8474 121.2 24.4074 121.14 23.9874 121.14C23.0874 121.14 22.3574 121.39 21.7974 121.89C21.2374 122.37 20.9574 123.02 20.9574 123.84C20.9574 124.74 21.2574 125.5 21.8574 126.12C22.4574 126.74 23.0974 127.31 23.7774 127.83C25.1974 128.87 26.2574 129.79 26.9574 130.59C27.6574 131.37 28.0074 132.26 28.0074 133.26V134.55L28.8474 136.2C28.0474 136.88 27.1574 137.4 26.1774 137.76C25.2174 138.12 24.1974 138.3 23.1174 138.3C22.8174 138.3 22.4174 138.28 21.9174 138.24C21.4174 138.2 20.8774 138.11 20.2974 137.97C19.7174 137.81 19.1674 137.58 18.6474 137.28L19.4874 135.39C20.0674 135.73 20.6674 135.98 21.2874 136.14C21.9274 136.3 22.5274 136.38 23.0874 136.38C23.6674 136.38 24.1774 136.31 24.6174 136.17C25.0774 136.03 25.5074 135.83 25.9074 135.57V133.5C25.9074 132.92 25.7074 132.4 25.3074 131.94C24.9274 131.46 24.4674 131.02 23.9274 130.62C23.4074 130.22 22.9274 129.85 22.4874 129.51C21.8674 129.01 21.2774 128.5 20.7174 127.98C20.1574 127.46 19.6974 126.87 19.3374 126.21C18.9974 125.55 18.8274 124.78 18.8274 123.9C18.8274 122.38 19.2974 121.22 20.2374 120.42C21.1974 119.62 22.4374 119.22 23.9574 119.22ZM35.1161 118.35V138H33.1961V120.24L32.5961 118.35H35.1161ZM35.5361 131.49C35.6761 130.39 35.9961 129.35 36.4961 128.37C37.0161 127.37 37.7061 126.51 38.5661 125.79C39.4261 125.05 40.4161 124.52 41.5361 124.2L42.1961 126C41.1561 126.3 40.2461 126.8 39.4661 127.5C38.6861 128.18 38.1161 129.07 37.7561 130.17L42.5261 137.22L40.9061 138.3L36.3461 131.49H35.5361ZM48.9212 119.52V121.77H46.7912V119.52H48.9212ZM48.8012 124.5V138H46.9112V126.39L46.2812 124.5H48.8012ZM56.4469 118.35V130.23C56.4469 131.33 56.4969 132.26 56.5969 133.02C56.7169 133.76 56.9869 134.42 57.4069 135C57.8269 135.58 58.4969 136.15 59.4169 136.71L58.4269 138.3C57.3269 137.72 56.4969 137.07 55.9369 136.35C55.3769 135.61 54.9969 134.75 54.7969 133.77C54.6169 132.79 54.5269 131.61 54.5269 130.23V120.24L53.9269 118.35H56.4469ZM65.1508 118.35V130.23C65.1508 131.33 65.2008 132.26 65.3008 133.02C65.4208 133.76 65.6908 134.42 66.1108 135C66.5308 135.58 67.2008 136.15 68.1208 136.71L67.1308 138.3C66.0308 137.72 65.2008 137.07 64.6408 136.35C64.0808 135.61 63.7008 134.75 63.5008 133.77C63.3208 132.79 63.2308 131.61 63.2308 130.23V120.24L62.6308 118.35H65.1508ZM72.636 119.22L75.816 135.87C76.136 135.81 76.506 135.76 76.926 135.72C77.346 135.68 77.716 135.65 78.036 135.63V124.5H80.196V135.63C80.536 135.65 80.916 135.68 81.336 135.72C81.776 135.76 82.136 135.81 82.416 135.87L85.596 119.22L87.666 119.61L84.096 138.3C83.656 138.16 83.126 138.04 82.506 137.94C81.906 137.82 81.306 137.73 80.706 137.67C80.106 137.59 79.576 137.55 79.116 137.55C78.656 137.55 78.126 137.59 77.526 137.67C76.926 137.73 76.326 137.82 75.726 137.94C75.126 138.04 74.596 138.16 74.136 138.3L70.566 119.61L72.636 119.22ZM92.9492 124.2C93.7892 124.2 94.6292 124.28 95.4692 124.44C96.3092 124.58 97.0792 124.84 97.7792 125.22C98.4792 125.58 99.0392 126.11 99.4592 126.81C99.8792 127.49 100.089 128.37 100.089 129.45V135.45L100.899 136.83C99.9792 137.35 99.0592 137.73 98.1392 137.97C97.2392 138.19 96.4092 138.3 95.6492 138.3C94.6692 138.3 93.8792 138.18 93.2792 137.94C92.6792 137.68 92.2092 137.39 91.8692 137.07C91.5492 136.73 91.2692 136.31 91.0292 135.81C90.7892 135.29 90.6692 134.71 90.6692 134.07C90.6692 133.07 90.8792 132.25 91.2992 131.61C91.7192 130.95 92.2792 130.44 92.9792 130.08C93.6992 129.72 94.4992 129.47 95.3792 129.33C96.2792 129.17 97.2092 129.09 98.1692 129.09C98.1292 128.43 97.9292 127.91 97.5692 127.53C97.2292 127.13 96.7892 126.83 96.2492 126.63C95.7292 126.43 95.1692 126.3 94.5692 126.24C93.9692 126.16 93.3792 126.11 92.7992 126.09L92.9492 124.2ZM98.1692 130.89C97.6892 130.89 97.1392 130.92 96.5192 130.98C95.8992 131.04 95.2992 131.17 94.7192 131.37C94.1392 131.55 93.6592 131.84 93.2792 132.24C92.8992 132.64 92.7092 133.18 92.7092 133.86C92.7092 134.32 92.7792 134.71 92.9192 135.03C93.0592 135.33 93.2192 135.56 93.3992 135.72C93.7192 136.04 94.0792 136.25 94.4792 136.35C94.8992 136.45 95.3092 136.5 95.7092 136.5C96.1892 136.5 96.6292 136.45 97.0292 136.35C97.4292 136.25 97.8092 136.13 98.1692 135.99V130.89ZM106.442 124.2L108.692 133.8C108.852 134.48 109.072 135.09 109.352 135.63C109.652 136.17 110.132 136.46 110.792 136.5C110.852 136.5 110.912 136.5 110.972 136.5C111.052 136.5 111.132 136.49 111.212 136.47L114.062 124.2L115.952 124.59L113.252 136.11L113.942 137.49C113.622 137.69 113.202 137.87 112.682 138.03C112.182 138.21 111.602 138.3 110.942 138.3C109.822 138.3 108.942 137.97 108.302 137.31C107.662 136.63 107.172 135.61 106.832 134.25L104.552 124.59L106.442 124.2ZM122.436 131.79V135.72C122.896 136.04 123.396 136.25 123.936 136.35C124.476 136.45 124.976 136.5 125.436 136.5C126.296 136.5 127.066 136.41 127.746 136.23C128.446 136.03 129.116 135.71 129.756 135.27V137.28C129.156 137.64 128.496 137.9 127.776 138.06C127.076 138.22 126.316 138.3 125.496 138.3C124.216 138.3 123.086 138.12 122.106 137.76C121.146 137.4 120.266 136.87 119.466 136.17L120.516 134.94V130.05C120.516 129.67 120.516 129.22 120.516 128.7C120.536 128.18 120.626 127.64 120.786 127.08C120.946 126.52 121.236 126 121.656 125.52C122.196 124.92 122.776 124.55 123.396 124.41C124.036 124.27 124.606 124.2 125.106 124.2C125.626 124.2 126.196 124.27 126.816 124.41C127.456 124.55 128.036 124.92 128.556 125.52C128.976 126 129.266 126.52 129.426 127.08C129.606 127.64 129.706 128.18 129.726 128.7C129.746 129.22 129.756 129.67 129.756 130.05V131.79H122.436ZM127.656 129.99C127.656 129.55 127.636 129.05 127.596 128.49C127.556 127.93 127.396 127.44 127.116 127.02C126.996 126.82 126.776 126.6 126.456 126.36C126.136 126.12 125.666 126 125.046 126C124.446 126 123.976 126.12 123.636 126.36C123.316 126.6 123.086 126.82 122.946 127.02C122.686 127.44 122.536 127.93 122.496 128.49C122.456 129.05 122.436 129.55 122.436 129.99H127.656Z" fill="#332DA1"/>
<path d="M20.4759 152.779H23.0059V154H18.9359V146.322H20.4759V152.779ZM25.5247 147.565V149.49H28.1097V150.711H25.5247V152.746H28.4397V154H23.9847V146.311H28.4397V147.565H25.5247ZM34.5472 152.537H31.4892L30.9832 154H29.3662L32.1272 146.311H33.9202L36.6812 154H35.0532L34.5472 152.537ZM34.1292 151.305L33.0182 148.093L31.9072 151.305H34.1292ZM41.6733 154L39.9793 151.008H39.2533V154H37.7133V146.322H40.5953C41.1893 146.322 41.6953 146.428 42.1133 146.641C42.5313 146.846 42.8429 147.129 43.0483 147.488C43.2609 147.84 43.3673 148.236 43.3673 148.676C43.3673 149.182 43.2206 149.64 42.9273 150.051C42.6339 150.454 42.1976 150.733 41.6183 150.887L43.4553 154H41.6733ZM39.2533 149.853H40.5403C40.9583 149.853 41.2699 149.754 41.4753 149.556C41.6806 149.351 41.7833 149.068 41.7833 148.709C41.7833 148.357 41.6806 148.086 41.4753 147.895C41.2699 147.697 40.9583 147.598 40.5403 147.598H39.2533V149.853ZM51.3271 154H49.7871L46.3001 148.731V154H44.7601V146.311H46.3001L49.7871 151.591V146.311H51.3271V154ZM60.2111 146.322V147.565H57.0101V149.534H59.4631V150.755H57.0101V154H55.4701V146.322H60.2111ZM65.2631 154L63.5691 151.008H62.8431V154H61.3031V146.322H64.1851C64.7791 146.322 65.2851 146.428 65.7031 146.641C66.1211 146.846 66.4328 147.129 66.6381 147.488C66.8508 147.84 66.9571 148.236 66.9571 148.676C66.9571 149.182 66.8104 149.64 66.5171 150.051C66.2238 150.454 65.7874 150.733 65.2081 150.887L67.0451 154H65.2631ZM62.8431 149.853H64.1301C64.5481 149.853 64.8598 149.754 65.0651 149.556C65.2704 149.351 65.3731 149.068 65.3731 148.709C65.3731 148.357 65.2704 148.086 65.0651 147.895C64.8598 147.697 64.5481 147.598 64.1301 147.598H62.8431V149.853ZM71.914 154.077C71.1953 154.077 70.5353 153.908 69.934 153.571C69.3326 153.234 68.856 152.768 68.504 152.174C68.152 151.573 67.976 150.894 67.976 150.139C67.976 149.391 68.152 148.72 68.504 148.126C68.856 147.525 69.3326 147.055 69.934 146.718C70.5353 146.381 71.1953 146.212 71.914 146.212C72.64 146.212 73.3 146.381 73.894 146.718C74.4953 147.055 74.9683 147.525 75.313 148.126C75.665 148.72 75.841 149.391 75.841 150.139C75.841 150.894 75.665 151.573 75.313 152.174C74.9683 152.768 74.4953 153.234 73.894 153.571C73.2926 153.908 72.6326 154.077 71.914 154.077ZM71.914 152.702C72.376 152.702 72.783 152.599 73.135 152.394C73.487 152.181 73.762 151.881 73.96 151.492C74.158 151.103 74.257 150.652 74.257 150.139C74.257 149.626 74.158 149.178 73.96 148.797C73.762 148.408 73.487 148.111 73.135 147.906C72.783 147.701 72.376 147.598 71.914 147.598C71.452 147.598 71.0413 147.701 70.682 147.906C70.33 148.111 70.055 148.408 69.857 148.797C69.659 149.178 69.56 149.626 69.56 150.139C69.56 150.652 69.659 151.103 69.857 151.492C70.055 151.881 70.33 152.181 70.682 152.394C71.0413 152.599 71.452 152.702 71.914 152.702ZM85.3577 146.322V154H83.8177V149.006L81.7607 154H80.5947L78.5267 149.006V154H76.9867V146.322H78.7357L81.1777 152.031L83.6197 146.322H85.3577ZM95.8703 146.322V154H94.3303V150.733H91.0413V154H89.5013V146.322H91.0413V149.479H94.3303V146.322H95.8703ZM100.95 154.077C100.231 154.077 99.5714 153.908 98.9701 153.571C98.3688 153.234 97.8921 152.768 97.5401 152.174C97.1881 151.573 97.0121 150.894 97.0121 150.139C97.0121 149.391 97.1881 148.72 97.5401 148.126C97.8921 147.525 98.3688 147.055 98.9701 146.718C99.5714 146.381 100.231 146.212 100.95 146.212C101.676 146.212 102.336 146.381 102.93 146.718C103.531 147.055 104.004 147.525 104.349 148.126C104.701 148.72 104.877 149.391 104.877 150.139C104.877 150.894 104.701 151.573 104.349 152.174C104.004 152.768 103.531 153.234 102.93 153.571C102.329 153.908 101.669 154.077 100.95 154.077ZM100.95 152.702C101.412 152.702 101.819 152.599 102.171 152.394C102.523 152.181 102.798 151.881 102.996 151.492C103.194 151.103 103.293 150.652 103.293 150.139C103.293 149.626 103.194 149.178 102.996 148.797C102.798 148.408 102.523 148.111 102.171 147.906C101.819 147.701 101.412 147.598 100.95 147.598C100.488 147.598 100.077 147.701 99.7181 147.906C99.3661 148.111 99.0911 148.408 98.8931 148.797C98.6951 149.178 98.5961 149.626 98.5961 150.139C98.5961 150.652 98.6951 151.103 98.8931 151.492C99.0911 151.881 99.3661 152.181 99.7181 152.394C100.077 152.599 100.488 152.702 100.95 152.702ZM114.394 146.322V154H112.854V149.006L110.797 154H109.631L107.563 149.006V154H106.023V146.322H107.772L110.214 152.031L112.656 146.322H114.394ZM117.456 147.565V149.49H120.041V150.711H117.456V152.746H120.371V154H115.916V146.311H120.371V147.565H117.456Z" fill="black"/>
</g>
<defs>
<clipPath id="clip0_6_2088">
<rect width="122.534" height="45" fill="white" transform="translate(8.32715 113)"/>
</clipPath>
</defs>
</svg>
